<svg id="Layer_1" data-name="Layer 1" xmlns="http://www.w3.org/2000/svg" viewBox="0 0 81.05 43.98"><defs><style>.cls-1{fill:#1d1d1b;}</style></defs><title>select-arrow</title><path class="cls-1" d="M80.58,5.61H80.4a1.7,1.7,0,0,1,.73,1.45A2.25,2.25,0,0,1,80.4,8.7L42.06,47a2,2,0,0,1-1.45.54A2.69,2.69,0,0,1,39,47L.63,8.7A2.64,2.64,0,0,1,.08,7.06,1.92,1.92,0,0,1,.63,5.61L2.08,4.15a2,2,0,0,1,1.46-.54,2.66,2.66,0,0,1,1.63.54L40.61,39.77,76,4.15a2.69,2.69,0,0,1,1.64-.54,2,2,0,0,1,1.45.54Z" transform="translate(-0.08 -3.61)"/></svg>