<svg id="Layer_1" data-name="Layer 1" xmlns="http://www.w3.org/2000/svg" viewBox="0 0 177.05 25.99"><defs><style>.cls-1{fill:#1d1d1b;}</style></defs><title>tfk-logo-black</title><path class="cls-1" d="M4.54,16.08v3.8h5v2h-5v5.22H2.32v-13h7.93v2Z" transform="translate(-1.16 -1.33)"/><path class="cls-1" d="M14,27.07v-13h2.22v13Z" transform="translate(-1.16 -1.33)"/><path class="cls-1" d="M31.31,27.32l-8.14-8.59v8.34H21V13.88l.35-.07,8,8.47V14.06h2.22v13.2Z" transform="translate(-1.16 -1.33)"/><path class="cls-1" d="M39.92,27.18A34.69,34.69,0,0,1,36.17,27V14.19A29,29,0,0,1,39.79,14c5.15,0,7.69,3,7.69,6.48C47.48,24.11,45.07,27.18,39.92,27.18Zm.14-11.26a11.38,11.38,0,0,0-1.67.11V25.1a10.69,10.69,0,0,0,1.87.11c3.33,0,4.84-2,4.84-4.76S43.36,15.92,40.06,15.92Z" transform="translate(-1.16 -1.33)"/><path class="cls-1" d="M50.8,27.07v-13h7.93v2H53v3.41h5.17v2H53v3.61h5.72v2Z" transform="translate(-1.16 -1.33)"/><path class="cls-1" d="M70.17,27.07l-2.84-4.69c-.23,0-.44,0-.69,0l-1.29,0v4.7H63.13V14.19A26.44,26.44,0,0,1,66.55,14c3.69,0,5.33,1.8,5.33,4.1a4,4,0,0,1-2.54,3.76l3.41,5.24ZM66.84,16a7.66,7.66,0,0,0-1.49.11V20.5a8.85,8.85,0,0,0,1.27.07c1.94,0,2.91-.9,2.91-2.39C69.53,16.87,68.54,16,66.84,16Z" transform="translate(-1.16 -1.33)"/><path class="cls-1" d="M78.65,27.28A7.63,7.63,0,0,1,74.57,26l.77-2a6.05,6.05,0,0,0,3.39,1.2c1.36,0,2-.79,2-1.7s-.39-1.47-2.45-2.34c-2.27-1-3.09-2.13-3.09-3.69,0-1.88,1.56-3.64,4.28-3.64a6.1,6.1,0,0,1,3.26.94L82,16.74a5,5,0,0,0-2.61-.92c-1.36,0-2,.74-2,1.61s.64,1.39,2.25,2.1C82.2,20.65,83,21.69,83,23.4,83,25.49,81.33,27.28,78.65,27.28Z" transform="translate(-1.16 -1.33)"/><path class="cls-1" d="M90.61,26.21h1.74V14.88H90.61v-.73h4.26v.73H93.13v5H95.2l3.45-5H97.32v-.73H101v.73H99.6l-3.73,5.3v0l.15.13a1.77,1.77,0,0,1,.38.51l2.91,4.82a1,1,0,0,0,1,.53H101v.73h-.64a1.57,1.57,0,0,1-1.75-1l-2.87-4.78a1,1,0,0,0-1.06-.61h-1.5v5.63h1.74v.73H90.61Z" transform="translate(-1.16 -1.33)"/><path class="cls-1" d="M104.24,26.21H106V14.88h-1.73v-.73h8.82v2.38h-.76V14.88h-5.54v5.25h5.1v.73h-5.1v5.35h5.9V24.46h.77v2.48h-9.19Z" transform="translate(-1.16 -1.33)"/><path class="cls-1" d="M117.32,26.21h1.73V14.88h-1.73v-.73h8.82v2.38h-.76V14.88h-5.54v5.25h5.1v.73h-5.1v5.35h5.9V24.46h.77v2.48h-9.19Z" transform="translate(-1.16 -1.33)"/><path class="cls-1" d="M130.4,26.21h1.74V14.88H130.4v-.73h5.66a5.18,5.18,0,0,1,2.22.39,3.52,3.52,0,0,1,1.95,3.34,3.53,3.53,0,0,1-2.3,3.51,5.23,5.23,0,0,1-1.87.25h-3.14v4.57h1.74v.73H130.4Zm5.63-5.3a5.12,5.12,0,0,0,1.66-.23,2.79,2.79,0,0,0,1.72-2.8,2.74,2.74,0,0,0-1.52-2.67,4.69,4.69,0,0,0-1.86-.33h-3.11v6Z" transform="translate(-1.16 -1.33)"/><path class="cls-1" d="M143.17,26.21h1.73V14.88h-1.73v-.73H152v2.38h-.76V14.88h-5.54v5.25h5.1v.73h-5.1v5.35h5.9V24.46h.77v2.48h-9.19Z" transform="translate(-1.16 -1.33)"/><path class="cls-1" d="M156.25,26.21H158V14.88h-1.73v-.73h5.39a6.6,6.6,0,0,1,2.19.29,3,3,0,0,1,2,3.11,3.41,3.41,0,0,1-3.06,3.65v0l.11.11a1.21,1.21,0,0,1,.26.35l2.41,4.09c.22.37.44.42.93.42h.35v.73h-.35c-1.11,0-1.26-.13-1.75-1l-2.29-3.85a1.36,1.36,0,0,0-1.51-.84h-2.14v4.93h1.74v.73h-4.26Zm5.9-5.66a2.75,2.75,0,0,0,2.83-3,2.36,2.36,0,0,0-1.57-2.45,5,5,0,0,0-1.81-.26h-2.83v5.67Z" transform="translate(-1.16 -1.33)"/><path class="cls-1" d="M171.19,23.62v.93c0,1.17,1.47,1.86,3.05,1.86,1.83,0,3.15-.95,3.15-2.63,0-1.84-1.57-2.54-3.31-3.16s-3.43-1.24-3.43-3.45,1.66-3.24,3.71-3.24c1.73,0,3.52.68,3.52,1.88V17h-.8v-1c0-.9-1.48-1.39-2.72-1.39-1.63,0-2.89.84-2.89,2.39s1.46,2.25,3.1,2.87c1.83.74,3.64,1.37,3.64,3.73,0,2.08-1.63,3.49-4,3.49-1.69,0-3.85-.77-3.85-2.43V23.62Z" transform="translate(-1.16 -1.33)"/><path class="cls-1" d="M2.34,4.29H1.16V3.81H2.34V2.08h.52V3.81H4.48v.48H2.86V7.72c0,1.64,1,1.85,1.48,1.85a.53.53,0,0,0,.21,0h.07V10a.16.16,0,0,0-.09,0H4.31c-.64,0-2-.24-2-2.29Z" transform="translate(-1.16 -1.33)"/><path class="cls-1" d="M6.45,9.52H7.57V1.81H6.39V1.33h1.7V4.9a1.86,1.86,0,0,1,0,.36L8,5.4h0a2.86,2.86,0,0,1,2.63-1.74c1.62,0,2,1,2,2.41V9.52h1.12V10H12.21V6.26c0-1.09-.13-2.09-1.52-2.09A2.65,2.65,0,0,0,8.09,7V9.52H9.2V10H6.45Z" transform="translate(-1.16 -1.33)"/><path class="cls-1" d="M17.49,3.66A2.54,2.54,0,0,1,20,6.48a.82.82,0,0,1,0,.22.49.49,0,0,0,0,.12H15a2.61,2.61,0,0,0,2.65,2.82,2.77,2.77,0,0,0,1.41-.4,2.26,2.26,0,0,0,.51-.38l.28.43a2.85,2.85,0,0,1-.59.42,3.35,3.35,0,0,1-1.61.44,3.12,3.12,0,0,1-3.2-3.23A3,3,0,0,1,17.49,3.66Zm2,2.67c-.06-1.52-.95-2.19-2-2.19a2.42,2.42,0,0,0-2.42,2.19Z" transform="translate(-1.16 -1.33)"/></svg>