<svg id="Layer_1" data-name="Layer 1" xmlns="http://www.w3.org/2000/svg" viewBox="0 0 841.89 464.72"><defs><style>.cls-1{fill:#fff;}</style></defs><title>tfk-logo-white-stacked</title><path class="cls-1" d="M34.28,176.64V215H85v19.91H34.28v52.74H11.86V156.19H92v20.45Z" transform="translate(0 -3.48)"/><path class="cls-1" d="M134.59,287.67V156.19H157V287.67Z" transform="translate(0 -3.48)"/><path class="cls-1" d="M309.3,290.18,227,203.36v84.31H204.55V154.39l3.58-.71,81.26,85.56V156.19h22.42V289.64Z" transform="translate(0 -3.48)"/><path class="cls-1" d="M396.3,288.74a363.45,363.45,0,0,1-37.86-2.15V157.44a309.56,309.56,0,0,1,36.6-2.15c52,0,77.67,30,77.67,65.47C472.71,257.71,448.31,288.74,396.3,288.74ZM397.73,175a113.6,113.6,0,0,0-16.86,1.08v91.66c5.56.89,10.22,1.08,18.83,1.08,33.73,0,49-20.28,49-48.08C448.67,193.5,431.09,175,397.73,175Z" transform="translate(0 -3.48)"/><path class="cls-1" d="M510.49,287.67V156.19h80.19v20.45H532.92v34.44h52.19v19.73H532.92v36.41h57.76v20.45Z" transform="translate(0 -3.48)"/><path class="cls-1" d="M706.36,287.67l-28.7-47.36c-2.33.18-4.48.18-7,.18-4.31,0-8.79-.18-13.1-.35v47.53H635.15V157.44a280.72,280.72,0,0,1,34.62-2.15c37.31,0,53.81,18.12,53.81,41.44,0,17-9.32,30.85-25.65,38l34.44,52.92ZM672.64,175.38a79.2,79.2,0,0,0-15.07,1.08V221.3a101.73,101.73,0,0,0,12.92.72c19.55,0,29.42-9.15,29.42-24.22C699.91,184.53,689.86,175.38,672.64,175.38Z" transform="translate(0 -3.48)"/><path class="cls-1" d="M797.84,289.82c-14.89,0-29.77-5.38-41.25-12.91l7.71-20.09c10.4,7.53,23,12.19,34.26,12.19,13.81,0,19.91-8.07,19.91-17.22s-4-14.88-24.75-23.67c-23-9.69-31.21-21.53-31.21-37.31,0-19,15.78-36.77,43.23-36.77,12.73,0,25.29,4.3,33,9.5l-7.17,19.73c-7-4.84-17.4-9.32-26.37-9.32-13.81,0-20.27,7.53-20.27,16.32s6.46,14,22.78,21.16c26,11.31,33.54,21.89,33.54,39.11C841.25,271.71,824.93,289.82,797.84,289.82Z" transform="translate(0 -3.48)"/><path class="cls-1" d="M11.85,459.25H28.2V352.6H11.85v-6.88H51.93v6.88H35.59v46.79H55L87.54,352.6H75v-6.88h34.24v6.88H96.49l-35.1,49.89v.34L62.77,404a18.79,18.79,0,0,1,3.62,4.81l27.34,45.42c2.24,3.61,4.82,5,9.46,5h6v6.89h-6c-10.14,0-12.21-2.07-16.51-9.12L59.68,412c-2.24-4-4.65-5.68-10-5.68H35.59v53H51.93v6.89H11.85Z" transform="translate(0 -3.48)"/><path class="cls-1" d="M140.16,459.25H156.5V352.6H140.16v-6.88h83.08v22.37H216V352.6H163.9V402h41.45v6.88H163.9v50.4h55.56V442.74h7.22v23.4H140.16Z" transform="translate(0 -3.48)"/><path class="cls-1" d="M263.3,459.25h16.34V352.6H263.3v-6.88h83.09v22.37h-7.23V352.6H287V402h41.45v6.88H287v50.4H342.6V442.74h7.23v23.4H263.3Z" transform="translate(0 -3.48)"/><path class="cls-1" d="M388.63,459.25H405V352.6H388.63v-6.88H442c7.57,0,15.14.87,20.81,3.62,11.19,5.32,18.41,16.51,18.41,31.47,0,16.35-8.6,28.39-21.67,33-5.68,2.07-11.18,2.41-17.55,2.41H412.36v43h16.35v6.89H388.63Zm53-49.88a47,47,0,0,0,15.65-2.24c10.15-3.95,16.17-13.24,16.17-26.32,0-12.38-5.33-20.81-14.28-25.11-4.64-2.06-10.83-3.1-17.54-3.1H412.36v56.77Z" transform="translate(0 -3.48)"/><path class="cls-1" d="M509.82,459.25h16.34V352.6H509.82v-6.88H592.9v22.37h-7.22V352.6H533.56V402H575v6.88H533.56v50.4h55.56V442.74h7.22v23.4H509.82Z" transform="translate(0 -3.48)"/><path class="cls-1" d="M635.14,459.25h16.34V352.6H635.14v-6.88h50.75c8.08,0,13.93.52,20.64,2.75,11.18,4.31,18.58,13.59,18.58,29.25,0,18.75-11,32.17-28.73,34.4v.35l1,1a14.26,14.26,0,0,1,2.41,3.27l22.71,38.53c2.06,3.44,4.13,3.95,8.77,3.95h3.27v6.89H731.3c-10.49,0-11.87-1.2-16.51-9.12l-21.51-36.3c-3.61-6.19-5.84-7.91-14.27-7.91H658.88v46.44h16.34v6.89H635.14Zm55.56-53.32c15.83,0,26.67-11.18,26.67-27.87,0-12.39-5.68-19.61-14.79-23.05-4.65-1.89-10.67-2.41-17-2.41H658.88v53.33Z" transform="translate(0 -3.48)"/><path class="cls-1" d="M775.83,434.83v8.77c0,11,13.77,17.55,28.73,17.55,17.2,0,29.59-8.95,29.59-24.77,0-17.38-14.8-23.91-31.14-29.76-15.48-6-32.34-11.7-32.34-32.51,0-19.79,15.65-30.46,34.92-30.46,16.34,0,33.2,6.37,33.2,17.73V372.9h-7.56v-9.11c0-8.43-13.94-13.08-25.64-13.08-15.31,0-27.17,7.91-27.17,22.53,0,16,13.76,21.16,29.24,27,17.2,6.88,34.23,12.9,34.23,35.1,0,19.6-15.31,32.85-37.33,32.85-16,0-36.3-7.22-36.3-22.88V434.83Z" transform="translate(0 -3.48)"/><path class="cls-1" d="M12.85,35.83H0V30.55H12.85V11.74h5.69V30.55H36.27v5.28H18.54V73.32c0,17.86,10.69,20.16,16.11,20.16a9.43,9.43,0,0,0,2.3-.13,2.27,2.27,0,0,1,.81-.14v5.28a2.56,2.56,0,0,0-.95.14,10.85,10.85,0,0,1-2.44.13c-7,0-21.52-2.57-21.52-25Z" transform="translate(0 -3.48)"/><path class="cls-1" d="M55.43,92.94H67.61V8.76H54.76V3.48H73.3v39A29,29,0,0,1,73,46.39L72.76,48H73c2.16-6.36,11.91-19.08,28.69-19.08,17.73,0,22.33,10.55,22.33,26.39V92.94h12.18v5.28H118.37V57.35c0-11.91-1.49-22.87-16.65-22.87C86,34.48,73.3,47.33,73.3,65.2V92.94H85.49v5.28H55.43Z" transform="translate(0 -3.48)"/><path class="cls-1" d="M176,28.93c18.54,0,27.61,14.48,27.61,30.85a15.35,15.35,0,0,1-.13,2.44,3.64,3.64,0,0,0-.14,1.22H149.1c0,19.62,13.26,30.86,29,30.86A30.21,30.21,0,0,0,193.49,90,25.54,25.54,0,0,0,199,85.77l3.11,4.74a33.14,33.14,0,0,1-6.49,4.6,36.35,36.35,0,0,1-17.6,4.73c-19.08,0-34.92-13.8-34.92-35.32C143.14,41.78,158.7,28.93,176,28.93Zm21.45,29.23c-.68-16.65-10.42-24-21.79-24-12.45,0-23.82,8.12-26.39,24Z" transform="translate(0 -3.48)"/></svg>